<svg width="150" height="94" viewBox="0 0 150 94" fill="none" xmlns="http://www.w3.org/2000/svg">
<path d="M84.3438 39L80.1777 9.85547H84.6426L87.0332 28.6465L90.1445 9.85547H93.7129L96.8945 28.6641L99.2852 9.85547H103.662L99.4961 39H95.2598L91.9727 19.541L88.7031 39H84.3438ZM107.178 39V9.85547H112.416V39H107.178ZM116.898 39V9.85547H122.207V35.3262H129.186V39H116.898ZM132.016 39V9.85547H138.801C140.559 9.85547 142.029 10.0312 143.213 10.3828C144.396 10.7344 145.346 11.291 146.061 12.0527C146.775 12.8145 147.279 13.752 147.572 14.8652C147.877 15.9668 148.029 17.3262 148.029 18.9434V29.4551C148.029 31.1191 147.877 32.5312 147.572 33.6914C147.268 34.8516 146.764 35.8359 146.061 36.6445C145.369 37.4531 144.443 38.0508 143.283 38.4375C142.123 38.8125 140.699 39 139.012 39H132.016ZM137.324 35.2734H138.836C139.363 35.2734 139.826 35.2266 140.225 35.1328C140.623 35.0391 140.957 34.9277 141.227 34.7988C141.496 34.6699 141.719 34.459 141.895 34.166C142.082 33.873 142.223 33.6035 142.316 33.3574C142.41 33.1113 142.48 32.7422 142.527 32.25C142.574 31.7461 142.604 31.3184 142.615 30.9668C142.627 30.6152 142.633 30.0938 142.633 29.4023V18.75C142.633 18.0586 142.621 17.502 142.598 17.0801C142.574 16.6582 142.516 16.2363 142.422 15.8145C142.34 15.3809 142.211 15.0469 142.035 14.8125C141.871 14.5781 141.648 14.3672 141.367 14.1797C141.086 13.9805 140.734 13.8457 140.312 13.7754C139.891 13.6934 139.381 13.6523 138.783 13.6523H137.324V35.2734Z" fill="white"/>
<path d="M13.9922 81.5391C11.8203 81.5391 9.96875 81.2422 8.4375 80.6484C6.90625 80.0391 5.69531 79.1484 4.80469 77.9766C3.92969 76.8047 3.29688 75.4531 2.90625 73.9219C2.51562 72.3906 2.32031 70.5938 2.32031 68.5312V54.6797C2.32031 52.5703 2.51562 50.7422 2.90625 49.1953C3.29688 47.6328 3.92969 46.2734 4.80469 45.1172C5.69531 43.9453 6.89844 43.0703 8.41406 42.4922C9.94531 41.8984 11.8047 41.6016 13.9922 41.6016C16.0859 41.6016 17.8672 41.8672 19.3359 42.3984C20.8203 42.9297 21.9766 43.7109 22.8047 44.7422C23.6484 45.7734 24.25 46.9453 24.6094 48.2578C24.9844 49.5703 25.1719 51.0938 25.1719 52.8281V56.25H16.7812V52.3359C16.7812 51.7266 16.7734 51.2656 16.7578 50.9531C16.7422 50.6406 16.6875 50.2422 16.5938 49.7578C16.5 49.2578 16.3594 48.8828 16.1719 48.6328C16 48.3828 15.7266 48.1641 15.3516 47.9766C14.9766 47.7734 14.5234 47.6719 13.9922 47.6719C13.4609 47.6719 13.0078 47.7734 12.6328 47.9766C12.2578 48.1641 11.9688 48.3984 11.7656 48.6797C11.5781 48.9453 11.4219 49.3203 11.2969 49.8047C11.1875 50.2734 11.1172 50.7031 11.0859 51.0938C11.0703 51.4844 11.0625 51.9688 11.0625 52.5469V70.6641C11.0625 72.2266 11.2656 73.4219 11.6719 74.25C12.0781 75.0625 12.8516 75.4688 13.9922 75.4688C14.5078 75.4688 14.9453 75.375 15.3047 75.1875C15.6797 74.9844 15.9609 74.75 16.1484 74.4844C16.3359 74.2188 16.4766 73.8438 16.5703 73.3594C16.6797 72.875 16.7422 72.4531 16.7578 72.0938C16.7734 71.7344 16.7812 71.2578 16.7812 70.6641V66.5859H25.1719V69.9375C25.1719 71.3281 25.0625 72.5859 24.8438 73.7109C24.625 74.8359 24.25 75.8984 23.7188 76.8984C23.2031 77.8828 22.5234 78.7109 21.6797 79.3828C20.8516 80.0547 19.7891 80.5859 18.4922 80.9766C17.1953 81.3516 15.6953 81.5391 13.9922 81.5391ZM29.9297 81V42.1406H38.5078V81H29.9297ZM52.875 58.6641H55.0781C56.8281 58.6641 58.0625 58.2109 58.7812 57.3047C59.5 56.3984 59.8594 55.0312 59.8594 53.2031C59.8594 51.4062 59.5312 50.0781 58.875 49.2188C58.2344 48.3438 57.1172 47.9062 55.5234 47.9062H52.875V58.6641ZM44.2969 81V42.1406H54.8906C56.5312 42.1406 57.9844 42.2344 59.25 42.4219C60.5156 42.6094 61.7031 42.9375 62.8125 43.4062C63.9219 43.875 64.8359 44.4922 65.5547 45.2578C66.2734 46.0234 66.8359 47.0078 67.2422 48.2109C67.6484 49.4141 67.8516 50.8203 67.8516 52.4297C67.8516 54.9766 67.5078 57.0234 66.8203 58.5703C66.1328 60.1172 64.8906 61.3203 63.0938 62.1797L68.4375 81H59.5547L55.2891 63.6094H52.875V81H44.2969ZM84.1172 81.5391C81.9453 81.5391 80.0938 81.2422 78.5625 80.6484C77.0312 80.0391 75.8203 79.1484 74.9297 77.9766C74.0547 76.8047 73.4219 75.4531 73.0312 73.9219C72.6406 72.3906 72.4453 70.5938 72.4453 68.5312V54.6797C72.4453 52.5703 72.6406 50.7422 73.0312 49.1953C73.4219 47.6328 74.0547 46.2734 74.9297 45.1172C75.8203 43.9453 77.0234 43.0703 78.5391 42.4922C80.0703 41.8984 81.9297 41.6016 84.1172 41.6016C86.2109 41.6016 87.9922 41.8672 89.4609 42.3984C90.9453 42.9297 92.1016 43.7109 92.9297 44.7422C93.7734 45.7734 94.375 46.9453 94.7344 48.2578C95.1094 49.5703 95.2969 51.0938 95.2969 52.8281V56.25H86.9062V52.3359C86.9062 51.7266 86.8984 51.2656 86.8828 50.9531C86.8672 50.6406 86.8125 50.2422 86.7188 49.7578C86.625 49.2578 86.4844 48.8828 86.2969 48.6328C86.125 48.3828 85.8516 48.1641 85.4766 47.9766C85.1016 47.7734 84.6484 47.6719 84.1172 47.6719C83.5859 47.6719 83.1328 47.7734 82.7578 47.9766C82.3828 48.1641 82.0938 48.3984 81.8906 48.6797C81.7031 48.9453 81.5469 49.3203 81.4219 49.8047C81.3125 50.2734 81.2422 50.7031 81.2109 51.0938C81.1953 51.4844 81.1875 51.9688 81.1875 52.5469V70.6641C81.1875 72.2266 81.3906 73.4219 81.7969 74.25C82.2031 75.0625 82.9766 75.4688 84.1172 75.4688C84.6328 75.4688 85.0703 75.375 85.4297 75.1875C85.8047 74.9844 86.0859 74.75 86.2734 74.4844C86.4609 74.2188 86.6016 73.8438 86.6953 73.3594C86.8047 72.875 86.8672 72.4531 86.8828 72.0938C86.8984 71.7344 86.9062 71.2578 86.9062 70.6641V66.5859H95.2969V69.9375C95.2969 71.3281 95.1875 72.5859 94.9688 73.7109C94.75 74.8359 94.375 75.8984 93.8438 76.8984C93.3281 77.8828 92.6484 78.7109 91.8047 79.3828C90.9766 80.0547 89.9141 80.5859 88.6172 80.9766C87.3203 81.3516 85.8203 81.5391 84.1172 81.5391ZM111.211 81.5391C109.445 81.5391 107.898 81.3594 106.57 81C105.258 80.625 104.164 80.1016 103.289 79.4297C102.43 78.7578 101.727 77.8906 101.18 76.8281C100.648 75.75 100.273 74.5703 100.055 73.2891C99.8359 71.9922 99.7266 70.4844 99.7266 68.7656V42.1406H108.211V70.0312C108.211 70.6406 108.227 71.1641 108.258 71.6016C108.289 72.0234 108.359 72.4844 108.469 72.9844C108.594 73.4844 108.758 73.8984 108.961 74.2266C109.164 74.5391 109.453 74.8047 109.828 75.0234C110.219 75.2266 110.68 75.3281 111.211 75.3281C111.742 75.3281 112.195 75.2266 112.57 75.0234C112.945 74.8047 113.234 74.5391 113.438 74.2266C113.641 73.8984 113.797 73.4844 113.906 72.9844C114.031 72.4844 114.109 72.0156 114.141 71.5781C114.172 71.1406 114.188 70.625 114.188 70.0312V42.1406H122.695V68.7656C122.695 70.9219 122.508 72.7578 122.133 74.2734C121.773 75.7891 121.164 77.1094 120.305 78.2344C119.445 79.3594 118.266 80.1953 116.766 80.7422C115.266 81.2734 113.414 81.5391 111.211 81.5391ZM138.469 81.5391C134.781 81.5391 132.031 80.5625 130.219 78.6094C128.422 76.6406 127.453 73.5078 127.312 69.2109L134.672 68.0859C134.703 70.5234 134.992 72.2969 135.539 73.4062C136.102 74.5 136.938 75.0469 138.047 75.0469C139.5 75.0469 140.227 74.1094 140.227 72.2344C140.227 71.1875 140.039 70.2266 139.664 69.3516C139.289 68.4609 138.828 67.7031 138.281 67.0781C137.734 66.4531 136.969 65.7188 135.984 64.875L132.539 61.8984C131.711 61.1797 131.023 60.5234 130.477 59.9297C129.93 59.3359 129.391 58.6328 128.859 57.8203C128.344 56.9922 127.961 56.0781 127.711 55.0781C127.461 54.0781 127.336 52.9766 127.336 51.7734C127.336 48.5391 128.305 46.0391 130.242 44.2734C132.18 42.5078 134.836 41.6172 138.211 41.6016C139.367 41.6016 140.414 41.7266 141.352 41.9766C142.305 42.2266 143.102 42.5547 143.742 42.9609C144.398 43.3672 144.969 43.8828 145.453 44.5078C145.953 45.1172 146.344 45.7344 146.625 46.3594C146.922 46.9688 147.164 47.6641 147.352 48.4453C147.555 49.2109 147.688 49.9141 147.75 50.5547C147.828 51.1953 147.883 51.8828 147.914 52.6172L140.484 53.5781C140.469 52.9219 140.445 52.3828 140.414 51.9609C140.398 51.5234 140.359 51.0625 140.297 50.5781C140.234 50.0938 140.148 49.7031 140.039 49.4062C139.93 49.1094 139.781 48.8359 139.594 48.5859C139.422 48.3203 139.195 48.1328 138.914 48.0234C138.648 47.9141 138.328 47.8672 137.953 47.8828C137.203 47.8984 136.625 48.2188 136.219 48.8438C135.828 49.4531 135.633 50.1406 135.633 50.9062C135.633 51.6406 135.719 52.3125 135.891 52.9219C136.078 53.5156 136.391 54.0938 136.828 54.6562C137.281 55.2188 137.648 55.6406 137.93 55.9219C138.211 56.2031 138.68 56.6406 139.336 57.2344L142.641 60.1406C143.547 60.9531 144.328 61.7344 144.984 62.4844C145.641 63.2188 146.266 64.0625 146.859 65.0156C147.453 65.9531 147.898 66.9922 148.195 68.1328C148.508 69.2578 148.664 70.4688 148.664 71.7656C148.664 74.5781 147.727 76.9141 145.852 78.7734C143.977 80.6172 141.516 81.5391 138.469 81.5391Z" fill="white"/>
</svg>
